<svg width="127" height="70" viewBox="0 0 127 70" fill="none" xmlns="http://www.w3.org/2000/svg">
<path d="M21.72 39.84C21.8 39.8133 21.9333 39.8 22.12 39.8C22.52 39.8 22.8267 39.9333 23.04 40.2C23.2533 40.4667 23.36 40.8267 23.36 41.28C23.36 42.1067 23.2 42.76 22.88 43.24C22.56 43.6933 22.08 44.0267 21.44 44.24C20.2133 44.64 18.9067 44.84 17.52 44.84C16.3467 44.84 15.24 44.68 14.2 44.36C13.4267 45.6133 12.5733 46.9067 11.64 48.24C10.5733 49.76 9.65333 50.8 8.88 51.36C8.10667 51.92 7.22667 52.2 6.24 52.2C5.14667 52.2 4.28 51.7733 3.64 50.92C3.02667 50.0667 2.64 48.72 2.48 46.88C2.16 43.1467 2 39.88 2 37.08V35.68C2.02667 34.8 2.26667 34.1867 2.72 33.84C3.17333 33.4933 3.85333 33.32 4.76 33.32C5.45333 33.32 5.96 33.48 6.28 33.8C6.62667 34.0933 6.8 34.6 6.8 35.32C6.8 38.3867 6.98667 42.3733 7.36 47.28C8.96 44.9067 10.16 43.0133 10.96 41.6C10.56 40.8267 10.36 39.9067 10.36 38.84C10.36 37.9333 10.56 37.0533 10.96 36.2C11.36 35.3467 11.9067 34.6533 12.6 34.12C13.2933 33.5867 14.08 33.32 14.96 33.32C15.7333 33.32 16.36 33.6 16.84 34.16C17.32 34.6933 17.56 35.48 17.56 36.52C17.56 37.72 17.24 39.0933 16.6 40.64C17.6133 40.5867 18.96 40.3867 20.64 40.04L21.72 39.84ZM24.8088 52.2C23.1554 52.2 21.8354 51.6 20.8488 50.4C19.8621 49.2 19.3688 47.6267 19.3688 45.68C19.3688 43.5467 19.8621 41.5333 20.8488 39.64C21.8354 37.72 23.1421 36.1867 24.7688 35.04C26.4221 33.8667 28.1688 33.28 30.0088 33.28C30.5954 33.28 30.9821 33.4 31.1688 33.64C31.3821 33.8533 31.5554 34.2533 31.6888 34.84C32.2488 34.7333 32.8354 34.68 33.4488 34.68C34.7554 34.68 35.4088 35.1467 35.4088 36.08C35.4088 36.64 35.2088 37.9733 34.8088 40.08C34.1954 43.1467 33.8888 45.28 33.8888 46.48C33.8888 46.88 33.9821 47.2 34.1688 47.44C34.3821 47.68 34.6488 47.8 34.9688 47.8C35.4754 47.8 36.0888 47.48 36.8088 46.84C37.5288 46.1733 38.5021 45.1067 39.7288 43.64C40.0488 43.2667 40.4088 43.08 40.8088 43.08C41.1554 43.08 41.4221 43.24 41.6088 43.56C41.8221 43.88 41.9288 44.32 41.9288 44.88C41.9288 45.9467 41.6754 46.7733 41.1688 47.36C40.0754 48.72 38.9154 49.8667 37.6888 50.8C36.4621 51.7333 35.2754 52.2 34.1288 52.2C33.2488 52.2 32.4354 51.9067 31.6888 51.32C30.9688 50.7067 30.4221 49.88 30.0488 48.84C28.6621 51.08 26.9154 52.2 24.8088 52.2ZM26.2488 48.16C26.8354 48.16 27.3954 47.8133 27.9288 47.12C28.4621 46.4267 28.8488 45.5067 29.0888 44.36L30.5688 37C29.4488 37.0267 28.4088 37.4533 27.4488 38.28C26.5154 39.08 25.7688 40.1467 25.2088 41.48C24.6488 42.8133 24.3688 44.2267 24.3688 45.72C24.3688 46.5467 24.5288 47.16 24.8488 47.56C25.1954 47.96 25.6621 48.16 26.2488 48.16ZM41.5178 52.2C40.5045 52.2 39.7845 51.6667 39.3578 50.6C38.9578 49.5333 38.7578 47.8267 38.7578 45.48C38.7578 42.0133 39.2511 38.72 40.2378 35.6C40.4778 34.8267 40.8645 34.2667 41.3978 33.92C41.9578 33.5467 42.7311 33.36 43.7178 33.36C44.2511 33.36 44.6245 33.4267 44.8378 33.56C45.0511 33.6933 45.1578 33.9467 45.1578 34.32C45.1578 34.7467 44.9578 35.7067 44.5578 37.2C44.2911 38.2667 44.0778 39.2 43.9178 40C43.7578 40.8 43.6245 41.7867 43.5178 42.96C44.3978 40.6667 45.3845 38.8 46.4778 37.36C47.5711 35.92 48.6378 34.8933 49.6778 34.28C50.7445 33.6667 51.7178 33.36 52.5978 33.36C54.3311 33.36 55.1978 34.2267 55.1978 35.96C55.1978 37 54.9045 38.88 54.3178 41.6C53.8111 43.92 53.5578 45.4533 53.5578 46.2C53.5578 47.2667 53.9445 47.8 54.7178 47.8C55.2511 47.8 55.8778 47.48 56.5978 46.84C57.3445 46.1733 58.3311 45.1067 59.5578 43.64C59.8778 43.2667 60.2378 43.08 60.6378 43.08C60.9845 43.08 61.2511 43.24 61.4378 43.56C61.6511 43.88 61.7578 44.32 61.7578 44.88C61.7578 45.9467 61.5045 46.7733 60.9978 47.36C59.8511 48.7733 58.6111 49.9333 57.2778 50.84C55.9711 51.7467 54.4778 52.2 52.7978 52.2C51.4378 52.2 50.4111 51.8133 49.7178 51.04C49.0245 50.24 48.6778 49.0933 48.6778 47.6C48.6778 46.8533 48.8645 45.52 49.2378 43.6C49.5845 41.92 49.7578 40.76 49.7578 40.12C49.7578 39.6933 49.6111 39.48 49.3178 39.48C48.9711 39.48 48.4778 39.9333 47.8378 40.84C47.2245 41.72 46.5845 42.8933 45.9178 44.36C45.2778 45.8267 44.7578 47.3733 44.3578 49C44.0645 50.2533 43.7178 51.1067 43.3178 51.56C42.9445 51.9867 42.3445 52.2 41.5178 52.2ZM76.3616 43.08C76.7082 43.08 76.9749 43.24 77.1616 43.56C77.3749 43.88 77.4816 44.32 77.4816 44.88C77.4816 45.9467 77.2282 46.7733 76.7216 47.36C75.5749 48.7733 74.3216 49.9333 72.9616 50.84C71.6016 51.7467 70.0416 52.2 68.2816 52.2C62.8416 52.2 60.1216 48.3733 60.1216 40.72C60.1216 39.5467 60.1616 38.36 60.2416 37.16H58.6816C57.8816 37.16 57.3349 37.0133 57.0416 36.72C56.7749 36.4267 56.6416 35.96 56.6416 35.32C56.6416 33.8267 57.2416 33.08 58.4416 33.08H60.7216C61.1749 30.1467 61.8682 27.4667 62.8016 25.04C63.7349 22.6133 64.8549 20.68 66.1616 19.24C67.4949 17.8 68.9216 17.08 70.4416 17.08C71.5616 17.08 72.4416 17.5733 73.0816 18.56C73.7216 19.5467 74.0416 20.7867 74.0416 22.28C74.0416 26.4133 72.3082 30.0133 68.8416 33.08H73.3216C73.7482 33.08 74.0549 33.1733 74.2416 33.36C74.4282 33.5467 74.5216 33.8933 74.5216 34.4C74.5216 36.24 73.0149 37.16 70.0016 37.16H65.1216C65.0682 38.4933 65.0416 39.5333 65.0416 40.28C65.0416 43.0533 65.3616 45 66.0016 46.12C66.6682 47.24 67.7082 47.8 69.1216 47.8C70.2682 47.8 71.2816 47.4533 72.1616 46.76C73.0416 46.0667 74.0816 45.0267 75.2816 43.64C75.6016 43.2667 75.9616 43.08 76.3616 43.08ZM69.3616 20.92C68.9616 20.92 68.5082 21.4267 68.0016 22.44C67.5216 23.4267 67.0549 24.8133 66.6016 26.6C66.1749 28.36 65.8149 30.32 65.5216 32.48C67.0949 31.12 68.2682 29.6 69.0416 27.92C69.8416 26.2133 70.2416 24.6667 70.2416 23.28C70.2416 21.7067 69.9482 20.92 69.3616 20.92ZM92.0647 43.08C92.4114 43.08 92.678 43.24 92.8647 43.56C93.078 43.88 93.1847 44.32 93.1847 44.88C93.1847 45.9467 92.9314 46.7733 92.4247 47.36C91.438 48.56 90.038 49.6667 88.2247 50.68C86.438 51.6933 84.518 52.2 82.4647 52.2C79.6647 52.2 77.4914 51.44 75.9447 49.92C74.398 48.4 73.6247 46.32 73.6247 43.68C73.6247 41.84 74.0114 40.1333 74.7847 38.56C75.558 36.96 76.6247 35.6933 77.9847 34.76C79.3714 33.8267 80.9314 33.36 82.6647 33.36C84.2114 33.36 85.4514 33.8267 86.3847 34.76C87.318 35.6667 87.7847 36.9067 87.7847 38.48C87.7847 40.32 87.118 41.9067 85.7847 43.24C84.478 44.5467 82.2514 45.5867 79.1047 46.36C79.7714 47.5867 81.038 48.2 82.9047 48.2C84.1047 48.2 85.4647 47.7867 86.9847 46.96C88.5314 46.1067 89.8647 45 90.9847 43.64C91.3047 43.2667 91.6647 43.08 92.0647 43.08ZM81.9847 37.28C80.998 37.28 80.158 37.8533 79.4647 39C78.798 40.1467 78.4647 41.5333 78.4647 43.16V43.24C80.038 42.8667 81.278 42.3067 82.1847 41.56C83.0914 40.8133 83.5447 39.9467 83.5447 38.96C83.5447 38.4533 83.398 38.0533 83.1047 37.76C82.838 37.44 82.4647 37.28 81.9847 37.28ZM105.088 43.08C105.434 43.08 105.701 43.24 105.888 43.56C106.101 43.88 106.208 44.32 106.208 44.88C106.208 45.9467 105.954 46.7733 105.448 47.36C104.301 48.7733 103.048 49.9333 101.688 50.84C100.354 51.7467 98.8345 52.2 97.1278 52.2C94.7811 52.2 93.0345 51.1333 91.8878 49C90.7678 46.8667 90.2078 44.1067 90.2078 40.72C90.2078 37.4667 90.6211 33.76 91.4478 29.6C92.3011 25.44 93.5411 21.8667 95.1678 18.88C96.8211 15.8933 98.7811 14.4 101.048 14.4C102.328 14.4 103.328 15 104.048 16.2C104.794 17.3733 105.168 19.0667 105.168 21.28C105.168 24.4533 104.288 28.1333 102.528 32.32C100.768 36.5067 98.3811 40.6533 95.3678 44.76C95.5545 45.8533 95.8611 46.64 96.2878 47.12C96.7145 47.5733 97.2745 47.8 97.9678 47.8C99.0611 47.8 100.021 47.4933 100.848 46.88C101.674 46.24 102.728 45.16 104.008 43.64C104.328 43.2667 104.688 43.08 105.088 43.08ZM100.168 18.36C99.5545 18.36 98.8611 19.4667 98.0878 21.68C97.3145 23.8933 96.6345 26.64 96.0478 29.92C95.4611 33.2 95.1411 36.3467 95.0878 39.36C96.9811 36.24 98.4878 33.12 99.6078 30C100.728 26.8533 101.288 23.9867 101.288 21.4C101.288 19.3733 100.914 18.36 100.168 18.36ZM107.184 52.2C105.664 52.2 104.424 51.6 103.464 50.4C102.531 49.2 102.064 47.6267 102.064 45.68C102.064 43.5467 102.557 41.5333 103.544 39.64C104.531 37.72 105.837 36.1867 107.464 35.04C109.117 33.8667 110.864 33.28 112.704 33.28C113.291 33.28 113.677 33.4 113.864 33.64C114.077 33.8533 114.251 34.2533 114.384 34.84C114.891 34.7333 115.451 34.68 116.064 34.68C116.704 34.68 117.197 34.84 117.544 35.16C117.891 35.48 118.064 35.9333 118.064 36.52C118.064 37.1333 117.931 38.2 117.664 39.72C117.371 41.3467 117.144 42.9067 116.984 44.4C116.824 45.8667 116.744 47.52 116.744 49.36C116.744 50.3733 116.531 51.1067 116.104 51.56C115.704 51.9867 115.037 52.2 114.104 52.2C113.197 52.2 112.517 51.9867 112.064 51.56C111.637 51.1067 111.424 50.3867 111.424 49.4L111.464 48.76C110.637 51.0533 109.211 52.2 107.184 52.2ZM108.744 48.16C109.491 48.16 110.171 47.64 110.784 46.6C111.397 45.56 111.944 43.7067 112.424 41.04L113.184 37C112.091 37.0267 111.077 37.4533 110.144 38.28C109.211 39.08 108.464 40.1467 107.904 41.48C107.344 42.8133 107.064 44.2267 107.064 45.72C107.064 46.52 107.211 47.1333 107.504 47.56C107.824 47.96 108.237 48.16 108.744 48.16Z" fill="#1F3E97"/>
<g clip-path="url(#clip0_124_616)">
<path d="M119.5 28C119.5 28.9283 119.869 29.8185 120.525 30.4749C121.182 31.1313 122.072 31.5 123 31.5C123.928 31.5 124.818 31.1313 125.475 30.4749C126.131 29.8185 126.5 28.9283 126.5 28C126.5 27.0717 126.131 26.1815 125.475 25.5251C124.818 24.8687 123.928 24.5 123 24.5C122.072 24.5 121.182 24.8687 120.525 25.5251C119.869 26.1815 119.5 27.0717 119.5 28ZM127 28C127 29.0609 126.579 30.0783 125.828 30.8284C125.078 31.5786 124.061 32 123 32C121.939 32 120.922 31.5786 120.172 30.8284C119.421 30.0783 119 29.0609 119 28C119 26.9391 119.421 25.9217 120.172 25.1716C120.922 24.4214 121.939 24 123 24C124.061 24 125.078 24.4214 125.828 25.1716C126.579 25.9217 127 26.9391 127 28ZM121.75 26.001H123.305C124.16 26.001 124.675 26.4875 124.675 27.231C124.675 27.8 124.342 28.201 123.928 28.351L124.75 30H123.99L123.26 28.462H122.418V30H121.75V26.001ZM122.418 26.546V27.9345H123.192C123.689 27.9345 123.978 27.703 123.978 27.2545C123.978 26.798 123.681 26.546 123.21 26.546H122.418Z" fill="#1F3E97"/>
</g>
<defs>
<clipPath id="clip0_124_616">
<rect width="8" height="8" fill="white" transform="translate(119 24)"/>
</clipPath>
</defs>
</svg>
